<?xml version="1.0" standalone="no"?>
<!DOCTYPE svg PUBLIC "-//W3C//DTD SVG 20010904//EN"
 "http://www.w3.org/TR/2001/REC-SVG-20010904/DTD/svg10.dtd">
<svg version="1.0" xmlns="http://www.w3.org/2000/svg"
 width="979.000000pt" height="979.000000pt" viewBox="0 0 979.000000 979.000000"
 preserveAspectRatio="xMidYMid meet">
<metadata>
Created by potrace 1.14, written by Peter Selinger 2001-2017
</metadata>
<g transform="translate(0.000000,979.000000) scale(0.100000,-0.100000)"
fill="#000000" stroke="none">
<path d="M4635 9761 c5 -9 3 -12 -6 -9 -8 3 -22 1 -31 -3 -10 -6 -19 -5 -23 1
-4 6 -12 7 -18 3 -11 -7 -27 -9 -110 -12 -16 -1 -26 -5 -22 -11 4 -7 -3 -7
-20 0 -32 12 -38 12 -31 2 2 -4 -13 -7 -35 -6 -23 1 -39 -3 -39 -10 0 -6 -5
-4 -10 4 -6 9 -10 11 -10 3 0 -7 -7 -10 -15 -7 -8 4 -15 2 -15 -4 0 -11 -18
-11 -37 1 -6 4 -14 3 -17 -2 -3 -4 -33 -11 -66 -15 -43 -5 -58 -11 -53 -19 4
-7 0 -6 -10 2 -9 7 -17 10 -17 5 0 -5 -11 -10 -25 -11 -14 -1 -36 -4 -50 -5
-14 -1 -25 -6 -25 -10 0 -5 -10 -4 -21 3 -13 7 -19 7 -15 1 3 -6 2 -13 -4 -17
-5 -3 -10 -1 -10 5 0 6 -5 8 -12 3 -13 -8 -33 -13 -55 -15 -7 -1 -13 -5 -13
-10 0 -11 -23 -6 -32 7 -4 6 -8 2 -8 -9 0 -16 -2 -17 -17 -5 -9 8 -14 9 -10 3
7 -12 -22 -24 -61 -24 -13 0 -21 -4 -18 -8 3 -5 -1 -9 -9 -9 -8 0 -15 5 -15
11 0 5 -6 3 -12 -6 -7 -9 -26 -19 -43 -22 -71 -15 -80 -18 -83 -26 -2 -4 -12
-6 -22 -3 -11 3 -20 0 -20 -6 0 -6 -3 -10 -7 -9 -14 3 -63 -14 -63 -22 0 -4
-11 -6 -25 -5 -14 2 -25 -1 -25 -6 0 -5 -9 -9 -19 -9 -11 0 -23 -5 -26 -11 -4
-6 -14 -8 -22 -5 -9 4 -11 2 -7 -6 5 -8 2 -9 -9 -5 -9 3 -19 2 -22 -3 -3 -5
-12 -7 -20 -3 -8 3 -15 0 -15 -6 0 -6 -5 -11 -11 -11 -5 0 -7 6 -3 13 4 6 -5
1 -19 -12 -15 -14 -27 -21 -27 -17 0 3 -12 0 -27 -7 -16 -8 -34 -12 -40 -10
-7 3 -13 0 -13 -6 0 -6 -7 -11 -15 -11 -8 0 -15 -6 -15 -12 0 -9 -3 -8 -10 2
-8 12 -10 12 -15 -2 -4 -10 -16 -15 -30 -13 -13 1 -23 -3 -22 -8 1 -6 -2 -12
-8 -12 -31 -4 -65 -18 -65 -27 0 -6 -9 -8 -20 -5 -11 3 -18 0 -17 -7 1 -6 -4
-10 -10 -8 -7 1 -13 -5 -13 -13 0 -13 -4 -14 -20 -5 -16 8 -18 8 -14 -4 4 -11
0 -14 -16 -11 -13 2 -20 2 -16 -2 9 -10 -33 -35 -46 -27 -7 4 -8 3 -4 -4 4 -7
4 -12 -1 -13 -31 -3 -48 -10 -71 -31 -14 -13 -22 -16 -18 -8 6 12 4 11 -6 -1
-7 -9 -17 -18 -23 -20 -5 -2 -9 -8 -7 -13 2 -5 -3 -4 -11 3 -12 9 -16 8 -21
-4 -3 -9 -10 -14 -14 -11 -5 3 -14 -4 -22 -14 -8 -10 -17 -17 -22 -14 -4 3 -8
0 -8 -6 0 -6 -4 -9 -9 -5 -5 3 -12 1 -16 -4 -3 -6 -12 -8 -20 -4 -10 3 -15 -1
-15 -13 0 -9 -3 -14 -6 -11 -4 4 -20 -3 -37 -15 -18 -13 -27 -16 -22 -7 4 7
-4 3 -20 -11 -16 -14 -25 -18 -21 -10 5 8 -4 2 -19 -15 -14 -16 -24 -25 -21
-19 3 6 -1 11 -8 11 -8 0 -12 -6 -9 -13 2 -7 -5 -15 -16 -19 -12 -3 -21 -11
-21 -17 0 -6 -6 -5 -16 2 -8 8 -14 9 -12 4 2 -5 0 -9 -4 -9 -4 0 -14 -9 -23
-20 -9 -11 -13 -13 -9 -5 4 8 -4 3 -19 -12 -14 -16 -31 -28 -37 -28 -6 0 -9
-3 -7 -7 6 -10 -13 -27 -33 -31 -8 -2 -17 -8 -18 -13 -2 -5 -8 -7 -13 -3 -5 3
-9 0 -9 -6 0 -6 -5 -8 -10 -5 -6 4 -9 1 -8 -7 2 -7 -1 -12 -7 -11 -10 1 -36
-22 -35 -32 0 -3 -3 -4 -6 -2 -3 1 -10 -6 -15 -15 -6 -10 -17 -18 -26 -18 -10
0 -13 -6 -9 -16 3 -8 2 -13 -2 -10 -5 3 -22 -8 -39 -23 -17 -15 -39 -31 -48
-34 -9 -4 -13 -12 -9 -19 5 -7 2 -9 -8 -6 -8 4 -20 -2 -27 -14 -7 -11 -15 -18
-18 -15 -3 3 -16 -7 -30 -24 -14 -16 -31 -29 -39 -29 -9 0 -12 -4 -9 -10 3 -5
-1 -10 -9 -10 -9 0 -15 -5 -14 -12 2 -7 -4 -12 -12 -13 -8 0 -14 -8 -14 -18 1
-9 -2 -15 -6 -12 -5 3 -21 -6 -36 -20 -15 -14 -31 -25 -36 -25 -5 0 -7 -4 -3
-9 3 -5 -4 -12 -15 -16 -11 -3 -20 -13 -20 -20 0 -9 -6 -12 -17 -8 -10 3 -15
3 -11 -1 8 -10 -14 -36 -24 -29 -7 4 -12 -12 -9 -29 0 -5 -4 -8 -10 -8 -14 0
-39 -26 -39 -40 0 -7 -7 -10 -15 -6 -8 3 -14 0 -12 -7 1 -7 -4 -11 -12 -9 -12
3 -12 0 -1 -13 11 -13 10 -15 -3 -9 -12 4 -15 1 -12 -15 2 -12 0 -19 -4 -17
-7 5 -41 -28 -41 -40 0 -3 -10 -15 -22 -26 -13 -11 -17 -16 -9 -12 9 5 12 3 7
-4 -4 -7 -14 -12 -23 -12 -9 0 -13 -6 -10 -14 4 -9 -2 -17 -14 -21 -10 -4 -19
-11 -19 -16 0 -6 -5 -7 -12 -3 -7 4 -8 3 -4 -4 4 -7 2 -20 -3 -29 -8 -14 -11
-15 -11 -3 0 8 -7 0 -15 -17 -8 -18 -20 -33 -26 -33 -7 0 -10 -3 -6 -6 3 -3
-5 -17 -19 -31 -13 -13 -24 -30 -24 -38 0 -8 -6 -14 -12 -12 -7 1 -14 -8 -16
-20 -2 -13 -10 -23 -19 -23 -9 0 -14 -3 -10 -6 7 -8 -15 -33 -25 -28 -3 2 -5
-4 -4 -13 2 -9 -8 -28 -21 -41 -12 -12 -23 -28 -23 -33 0 -16 -27 -39 -35 -31
-5 4 -6 -1 -2 -10 3 -10 0 -19 -9 -22 -9 -3 -12 -11 -9 -16 4 -6 1 -9 -7 -8
-7 2 -12 -3 -11 -9 2 -7 -2 -13 -8 -13 -5 0 -8 -4 -4 -9 3 -5 -4 -13 -16 -16
-17 -6 -18 -9 -8 -16 11 -6 10 -9 -4 -15 -9 -3 -17 -15 -17 -25 0 -10 -4 -19
-10 -19 -5 0 -10 -7 -10 -16 0 -8 -4 -13 -9 -9 -5 3 -12 -4 -16 -15 -3 -11
-11 -20 -16 -20 -6 0 -8 -4 -5 -8 3 -5 -4 -14 -14 -22 -10 -8 -17 -17 -15 -21
3 -3 -8 -20 -24 -37 -16 -17 -27 -33 -24 -36 3 -3 -1 -8 -10 -12 -9 -3 -19
-19 -22 -35 -4 -16 -11 -29 -16 -29 -6 0 -8 -4 -5 -9 3 -4 -3 -16 -14 -26 -11
-10 -17 -22 -14 -26 3 -5 0 -9 -6 -9 -6 0 -9 -4 -6 -9 3 -5 -4 -21 -16 -37
-13 -16 -16 -25 -8 -20 8 4 6 0 -4 -8 -11 -9 -16 -16 -11 -16 5 0 4 -5 -3 -12
-7 -7 -12 -20 -12 -29 0 -9 -7 -19 -15 -23 -8 -3 -15 -10 -15 -16 0 -6 6 -8
13 -4 6 4 5 -1 -4 -12 -18 -21 -33 -55 -31 -66 1 -5 -2 -8 -8 -8 -5 0 -7 -7
-4 -15 4 -8 1 -15 -6 -15 -6 0 -8 -4 -5 -10 3 -5 1 -10 -4 -10 -6 0 -10 -3
-10 -7 1 -5 0 -11 -1 -15 -4 -13 -7 -27 -9 -39 0 -5 -7 -7 -13 -3 -8 5 -7 0 2
-11 9 -11 10 -16 2 -11 -7 4 -12 1 -12 -8 0 -9 -8 -30 -18 -48 -10 -18 -17
-39 -15 -45 3 -7 0 -13 -6 -13 -5 0 -8 -9 -6 -20 2 -11 0 -18 -6 -15 -8 6 -13
-8 -10 -28 1 -4 -6 -24 -15 -45 -10 -20 -16 -40 -16 -44 1 -4 -3 -20 -10 -35
-6 -15 -10 -34 -9 -40 1 -7 -2 -13 -8 -13 -5 0 -8 -11 -7 -25 2 -13 -1 -22 -5
-19 -5 3 -9 -6 -9 -20 0 -14 -6 -26 -12 -26 -10 0 -9 -3 1 -9 10 -6 10 -10 1
-16 -6 -4 -9 -13 -6 -21 3 -8 0 -14 -7 -14 -8 0 -8 -3 2 -9 10 -7 10 -10 1
-13 -7 -2 -14 -17 -16 -33 -7 -56 -12 -70 -21 -68 -5 1 -8 -13 -7 -30 2 -18
-3 -41 -10 -52 -6 -11 -12 -41 -11 -67 0 -25 -3 -44 -7 -41 -5 2 -9 -3 -9 -11
-2 -23 -4 -30 -10 -41 -3 -5 -5 -27 -4 -47 0 -21 -3 -38 -8 -38 -4 0 -6 -4 -2
-9 3 -5 1 -13 -5 -16 -8 -5 -7 -11 1 -21 7 -9 8 -14 1 -14 -6 0 -9 -11 -7 -25
1 -14 -1 -28 -6 -31 -4 -2 -6 -11 -2 -19 3 -9 -1 -15 -8 -15 -11 0 -11 -3 1
-10 8 -5 10 -10 3 -10 -6 0 -9 -9 -6 -20 3 -11 0 -20 -6 -20 -9 0 -9 -5 0 -21
6 -12 7 -19 2 -16 -5 3 -9 -18 -8 -49 1 -30 -2 -57 -7 -60 -4 -3 -5 -11 -1
-17 11 -18 11 -47 0 -47 -5 0 -3 -8 4 -17 8 -9 9 -14 3 -10 -13 7 -12 -61 0
-81 3 -6 2 -13 -4 -17 -5 -3 -10 -15 -10 -26 0 -13 4 -18 12 -13 7 5 8 3 2 -7
-11 -18 -12 -89 -2 -89 5 0 4 -9 -2 -20 -8 -15 -8 -20 1 -20 8 0 9 -4 0 -13
-8 -10 -7 -17 2 -27 9 -10 9 -11 0 -6 -15 8 -18 -10 -3 -19 7 -4 7 -12 0 -25
-7 -13 -7 -21 0 -25 5 -3 10 -11 10 -16 0 -6 -5 -7 -12 -3 -7 5 -8 3 -3 -6 4
-7 10 -31 13 -53 3 -29 1 -38 -8 -32 -7 4 -4 -4 5 -19 14 -20 14 -26 4 -26 -9
0 -10 -3 -4 -8 6 -4 11 -16 13 -27 10 -70 16 -95 22 -95 5 0 7 -8 5 -17 -1
-10 2 -26 7 -37 7 -12 7 -16 0 -12 -6 3 -13 2 -17 -4 -3 -5 0 -10 7 -10 8 0
13 -14 14 -38 0 -20 4 -48 8 -61 6 -18 5 -22 -5 -15 -12 7 -12 5 -1 -9 8 -9
11 -21 7 -27 -4 -6 -1 -9 5 -8 7 2 14 -5 15 -14 2 -10 -2 -18 -8 -18 -8 0 -8
-3 -2 -8 6 -4 12 -18 13 -32 2 -14 8 -27 13 -28 5 -2 7 -8 3 -13 -3 -5 -1 -9
4 -9 6 0 9 -8 8 -17 -1 -13 5 -17 19 -15 16 2 17 1 6 -7 -12 -8 -12 -12 2 -26
19 -18 23 -30 7 -20 -16 10 -12 -7 7 -28 10 -11 13 -17 7 -14 -8 4 -11 -3 -10
-23 0 -17 5 -30 11 -30 5 0 3 -5 -5 -10 -11 -7 -11 -10 -2 -10 7 0 12 -8 11
-17 -1 -10 -1 -37 0 -61 1 -32 4 -41 14 -36 8 5 8 2 -2 -9 -12 -16 -9 -21 12
-18 4 1 3 -8 -3 -19 -9 -17 -8 -20 7 -20 14 0 15 -2 4 -9 -9 -6 -10 -11 -2
-15 15 -10 14 -29 -1 -21 -7 4 -6 1 3 -7 9 -7 14 -19 12 -25 -3 -7 1 -13 7
-13 10 0 10 -3 1 -14 -9 -11 -9 -16 0 -22 8 -5 9 -3 4 6 -6 9 -4 11 4 5 7 -4
11 -18 8 -31 -2 -13 -1 -25 3 -26 4 -2 11 -14 15 -27 5 -17 4 -21 -5 -16 -9 5
-8 1 1 -16 7 -13 15 -37 17 -54 2 -16 8 -33 14 -36 6 -4 7 -12 4 -18 -4 -6 -2
-11 4 -11 7 0 10 -6 7 -14 -3 -8 -1 -16 5 -18 6 -2 10 -16 10 -31 0 -15 4 -25
8 -22 4 2 5 -7 2 -20 -2 -15 0 -25 7 -25 7 0 10 -4 7 -9 -4 -5 -2 -11 4 -13 5
-1 10 -17 12 -35 1 -17 6 -29 12 -26 5 3 7 -5 4 -20 -3 -15 -1 -24 3 -21 5 3
9 -2 9 -11 0 -9 4 -14 9 -11 4 3 7 -6 6 -19 -2 -14 2 -23 8 -22 7 1 11 -4 9
-10 -1 -7 2 -13 8 -13 5 0 10 -6 10 -14 0 -8 4 -16 9 -18 5 -1 11 -9 13 -16 2
-8 16 -28 31 -44 15 -17 26 -37 23 -45 -3 -7 1 -13 9 -13 16 0 17 -4 18 -62 0
-21 5 -38 11 -38 6 0 4 -5 -4 -10 -10 -6 -11 -10 -2 -10 6 0 12 -9 12 -20 0
-11 5 -20 10 -20 6 0 10 -6 10 -14 0 -8 5 -18 12 -22 7 -5 9 -2 6 8 -5 11 0
15 20 14 15 -1 27 4 27 11 0 6 4 15 9 20 5 5 6 3 2 -4 -4 -8 -1 -13 8 -14 47
-4 76 -20 91 -50 9 -16 20 -29 26 -29 6 0 8 -4 4 -10 -3 -5 3 -18 15 -30 12
-12 15 -20 7 -20 -8 0 -8 -3 2 -9 8 -5 14 -25 14 -45 0 -19 4 -33 9 -30 4 3 8
1 8 -5 0 -5 -5 -13 -11 -17 -8 -4 -7 -9 2 -15 11 -7 11 -9 -1 -9 -9 0 -11 -3
-5 -8 6 -4 17 -16 25 -26 13 -18 13 -19 0 -12 -8 4 -4 -2 9 -13 14 -13 18 -21
10 -21 -9 0 -10 -3 -4 -8 6 -4 19 -24 30 -44 10 -20 29 -42 42 -49 13 -7 23
-21 23 -31 0 -10 5 -18 10 -18 6 0 10 -7 10 -16 0 -8 4 -13 8 -10 4 2 9 -7 10
-21 1 -15 9 -34 17 -43 8 -9 12 -20 8 -25 -5 -4 -2 -5 5 -1 7 4 12 1 12 -9 0
-9 5 -13 10 -10 6 4 9 3 8 -2 -1 -4 3 -18 10 -29 6 -12 8 -24 4 -28 -3 -4 0
-11 8 -16 11 -7 12 -10 2 -10 -7 0 -10 -5 -7 -10 4 -6 11 -7 17 -4 6 4 8 2 5
-3 -4 -6 0 -16 8 -23 8 -7 15 -18 15 -24 0 -6 13 -20 30 -29 16 -10 30 -25 30
-33 0 -8 4 -12 10 -9 6 3 7 -1 4 -9 -4 -12 0 -16 17 -16 12 0 20 -3 16 -6 -9
-9 16 -33 28 -26 6 3 4 -2 -4 -12 -12 -15 -12 -17 0 -14 8 2 13 -3 11 -11 -3
-12 -1 -12 14 0 10 8 15 9 11 3 -7 -12 13 -64 26 -64 4 0 7 -7 7 -16 0 -9 5
-12 12 -8 10 6 10 4 0 -8 -10 -13 -10 -18 -1 -24 8 -5 9 -3 4 6 -6 9 -4 11 4
6 7 -5 10 -15 7 -23 -3 -8 -1 -11 4 -8 6 3 10 1 10 -5 0 -13 30 -45 31 -33 0
4 5 -3 11 -17 6 -14 10 -28 10 -32 -1 -4 5 -5 13 -2 9 4 15 0 15 -9 0 -9 9
-19 20 -22 11 -4 18 -10 15 -15 -3 -5 8 -22 25 -38 16 -17 30 -28 30 -26 0 3
6 -1 14 -8 8 -7 12 -16 9 -20 -2 -5 3 -8 11 -8 9 0 16 -4 16 -8 0 -15 41 -53
51 -47 5 4 9 1 9 -6 0 -13 38 -49 52 -49 4 0 8 -5 8 -11 0 -13 25 -39 39 -39
12 0 33 -35 25 -43 -3 -3 4 -3 17 0 15 4 20 3 15 -5 -4 -7 -1 -12 7 -12 8 0
17 -7 21 -15 3 -8 13 -15 23 -15 16 0 16 -2 3 -11 -12 -9 -11 -10 8 -6 12 3
20 1 16 -4 -3 -5 3 -9 13 -9 14 0 15 -2 4 -9 -11 -7 -9 -10 10 -13 16 -2 24
-9 23 -21 -2 -14 1 -15 11 -7 11 9 13 6 11 -13 -2 -14 2 -24 10 -24 6 0 10 6
7 14 -3 7 -1 13 5 13 5 0 9 -14 8 -31 -2 -28 -1 -29 11 -13 12 17 13 17 13 0
0 -15 3 -16 15 -6 12 10 14 8 10 -8 -3 -20 9 -23 33 -9 6 5 12 4 12 0 0 -5 9
-14 21 -21 15 -10 19 -10 14 -1 -5 8 -4 10 3 5 7 -4 12 -15 13 -24 0 -10 3
-12 5 -5 6 14 54 -4 54 -20 0 -5 9 -7 20 -4 14 4 20 0 21 -11 0 -10 3 -12 6
-5 3 8 13 4 31 -12 15 -14 35 -28 45 -31 9 -3 15 -10 12 -15 -4 -5 1 -9 10 -9
10 0 13 -5 9 -12 -5 -8 -2 -9 9 -5 11 4 17 1 17 -9 0 -8 4 -13 9 -9 5 3 17 -2
25 -11 9 -8 16 -13 16 -9 0 3 11 -4 25 -17 46 -43 58 -52 79 -53 13 -1 20 -9
20 -19 -2 -13 1 -14 12 -5 13 10 18 6 15 -14 0 -4 2 -7 6 -6 16 2 53 -14 53
-23 0 -5 5 -6 10 -3 6 3 10 1 10 -5 0 -6 5 -8 10 -5 5 3 10 1 10 -5 0 -6 5 -8
12 -4 7 4 8 3 4 -4 -4 -7 2 -16 16 -21 13 -5 33 -18 46 -29 14 -12 30 -18 39
-15 11 4 14 2 9 -5 -5 -8 1 -12 18 -12 13 0 26 -4 28 -9 1 -5 12 -11 23 -13
11 -1 27 -11 37 -21 12 -13 17 -15 21 -5 4 11 6 10 6 0 1 -7 5 -11 10 -7 5 3
15 -1 23 -8 13 -13 44 -29 63 -33 6 -1 13 -3 18 -4 4 -1 10 -4 15 -5 4 -1 22
-6 40 -10 17 -4 32 -13 32 -19 0 -6 5 -4 10 4 5 8 10 10 10 3 0 -6 8 -10 18
-8 9 1 23 -3 31 -9 12 -9 13 -7 8 8 -6 16 -5 17 8 6 14 -12 20 -7 15 15 -1 6
4 4 11 -3 15 -14 33 -16 24 -3 -3 5 -1 12 5 16 5 3 10 1 10 -5 0 -6 5 -8 10
-5 6 4 8 11 5 16 -8 12 2 11 28 -3 21 -10 21 -10 7 7 -14 17 -14 17 6 7 12 -6
24 -8 28 -5 3 3 6 1 6 -6 0 -7 4 -9 10 -6 5 3 10 1 10 -4 0 -6 14 -11 31 -11
19 0 28 -4 23 -11 -4 -8 0 -8 15 0 11 7 21 8 21 3 0 -4 9 -8 20 -9 13 -1 18 2
13 10 -5 9 -3 9 8 1 8 -6 22 -10 32 -9 10 2 14 -1 10 -7 -4 -7 2 -9 15 -6 12
4 25 2 28 -3 3 -6 13 -9 22 -8 29 2 43 -1 38 -9 -2 -4 5 -9 16 -9 12 -1 25 -8
29 -15 7 -11 9 -11 9 0 0 7 5 10 10 7 6 -4 23 -9 37 -11 15 -3 30 -8 33 -12 3
-4 14 -8 25 -10 11 -2 31 -5 45 -7 13 -2 31 2 39 8 10 8 13 9 8 1 -4 -7 0 -14
8 -18 8 -3 17 0 21 6 5 7 2 8 -6 3 -9 -5 -11 -4 -6 4 6 9 11 9 22 0 7 -6 20
-9 29 -6 8 4 17 2 21 -4 4 -6 11 -6 20 2 10 8 14 8 14 0 0 -7 8 -8 26 -1 16 7
23 7 19 0 -3 -6 0 -10 9 -10 8 0 16 -3 19 -7 2 -5 2 -3 1 4 -4 15 24 25 32 11
5 -7 2 -8 -6 -3 -9 5 -11 4 -6 -4 4 -6 12 -9 17 -5 5 3 16 1 23 -5 9 -8 13 -7
13 4 0 8 -5 11 -10 8 -6 -3 -7 -1 -3 5 4 7 2 12 -5 12 -7 0 -9 3 -6 6 4 4 13
2 20 -4 8 -7 18 -8 22 -4 5 4 5 -1 2 -10 -4 -12 -2 -15 8 -11 8 3 12 10 8 17
-4 6 1 5 10 -3 18 -14 23 -26 8 -16 -5 3 -12 2 -15 -3 -2 -4 5 -9 16 -9 11 -1
26 -10 32 -19 7 -9 18 -14 23 -11 6 4 13 -3 16 -15 5 -17 9 -19 21 -9 12 10
15 8 20 -7 4 -10 18 -25 31 -32 14 -7 25 -17 25 -22 0 -4 7 -8 16 -8 8 0 12
-5 9 -10 -3 -5 2 -10 11 -10 10 0 15 -3 11 -6 -8 -8 18 -34 33 -34 6 0 8 -4 5
-10 -3 -5 3 -10 14 -10 12 0 20 -6 19 -12 -2 -7 5 -12 14 -12 10 1 17 -1 16
-5 -2 -22 5 -31 25 -31 18 0 19 -2 7 -10 -11 -7 -11 -10 -2 -10 8 0 10 -5 6
-13 -6 -9 -5 -9 7 -1 11 9 17 9 27 -2 7 -8 9 -14 5 -14 -4 0 0 -5 10 -11 9 -6
14 -16 11 -22 -4 -7 -4 -9 0 -5 10 8 49 -29 59 -56 5 -12 13 -16 23 -12 15 6
15 4 3 -11 -8 -9 -9 -14 -3 -10 7 4 15 0 18 -9 4 -9 13 -14 22 -10 8 3 12 2 9
-3 -3 -5 -1 -12 4 -15 11 -7 62 14 57 23 -2 3 2 12 10 19 8 7 14 9 14 5 1 -4
7 3 15 17 7 14 17 25 22 25 4 0 7 3 5 8 -1 4 2 7 8 7 5 0 10 7 10 16 0 8 4 13
9 9 10 -5 27 33 22 49 -1 5 6 3 15 -5 10 -8 15 -9 11 -3 -3 6 7 24 23 40 16
16 30 34 30 39 0 6 19 10 44 9 39 -2 49 3 86 37 25 23 38 43 34 50 -4 8 -3 9
4 5 7 -4 12 -2 12 4 0 6 4 9 9 6 12 -8 23 23 14 37 -4 7 2 5 12 -3 17 -14 18
-13 12 2 -4 13 -2 15 10 11 11 -4 14 -2 9 5 -7 11 6 17 28 13 5 -1 6 5 3 13
-4 10 -1 13 9 9 7 -3 14 0 14 7 0 6 5 8 10 5 6 -3 10 0 10 7 0 9 3 9 10 -2 8
-13 13 -13 31 -2 11 8 18 9 15 3 -10 -15 36 -18 67 -4 22 11 27 11 27 1 1 -8
6 -6 14 5 14 18 14 18 19 0 4 -15 5 -15 6 3 0 11 8 21 16 21 10 0 14 -6 10
-16 -4 -13 -2 -12 9 2 15 19 31 23 20 5 -5 -8 -1 -7 10 2 10 8 31 13 47 12 16
-1 38 2 49 8 14 7 20 7 20 0 0 -5 5 -10 11 -10 6 0 9 7 6 15 -5 11 -1 12 18 5
18 -7 25 -6 25 2 0 6 3 8 7 5 3 -4 12 -2 19 4 8 6 21 9 29 5 8 -3 15 0 15 6 0
7 7 3 15 -8 13 -16 14 -16 9 -1 -5 13 -1 17 15 17 12 0 21 4 21 9 0 6 9 8 20
6 12 -2 20 2 20 10 0 20 19 29 34 16 9 -8 18 -5 34 9 14 14 22 16 26 7 3 -9 6
-9 13 0 5 8 14 9 23 3 8 -5 19 -5 25 0 5 4 26 9 45 11 19 2 41 7 48 12 8 6 12
5 12 -4 0 -10 3 -10 11 -2 6 6 18 9 27 6 11 -5 13 -2 7 6 -6 10 -3 11 14 2 13
-7 21 -8 21 -2 0 6 7 7 17 4 11 -4 14 -3 9 6 -9 14 16 11 26 -4 5 -6 8 -3 8 7
0 9 5 20 12 24 6 4 8 3 4 -4 -3 -6 7 -4 24 4 16 9 32 20 36 25 4 6 14 3 25 -7
16 -14 19 -15 14 -3 -4 12 0 15 17 14 13 -1 30 1 39 6 9 5 20 4 27 -3 8 -8 9
-4 6 13 -5 19 -4 21 5 9 10 -14 16 -7 12 13 -1 5 3 6 8 3 5 -4 12 -2 16 4 3 5
15 10 27 10 14 0 18 5 14 16 -4 10 -2 13 7 7 18 -11 38 -13 31 -2 -3 6 6 8 21
5 23 -4 25 -3 14 10 -10 12 -9 13 5 8 9 -4 16 -1 16 6 0 7 7 10 16 6 12 -5 14
-1 9 17 -7 22 -7 22 9 2 16 -20 16 -20 22 3 5 16 9 20 14 12 11 -17 33 -2 25
17 -4 13 -3 13 9 4 11 -9 15 -9 19 1 4 10 6 10 6 1 1 -7 6 -13 12 -13 5 0 7 5
3 12 -5 8 0 9 14 6 12 -4 20 -2 17 2 -3 5 -1 11 5 15 5 3 10 1 10 -6 0 -8 5
-7 18 3 25 22 46 33 39 21 -4 -6 10 -2 30 8 20 10 40 16 46 12 6 -4 7 -1 2 7
-6 10 -4 12 9 7 10 -4 19 -1 22 8 3 8 12 11 22 8 12 -5 14 -2 9 12 -6 14 -5
16 7 6 11 -9 15 -8 20 6 6 15 8 15 16 3 7 -11 10 -12 10 -2 0 7 5 10 10 7 6
-3 10 2 10 12 0 15 2 16 10 3 7 -11 10 -11 10 -2 0 7 5 10 10 7 6 -3 13 1 16
10 6 13 8 14 15 3 7 -10 9 -9 9 4 0 9 5 20 12 24 7 5 8 3 3 -7 -8 -12 -6 -12
8 0 9 7 15 17 12 20 -4 7 2 9 44 13 12 2 17 8 13 16 -4 12 -1 12 18 2 12 -7
20 -8 17 -2 -4 5 0 17 7 28 11 15 17 16 29 6 12 -10 17 -10 23 -1 5 8 3 9 -6
4 -9 -5 -11 -4 -6 4 4 6 16 9 25 6 10 -3 24 1 30 9 7 8 21 13 32 11 11 -2 17
0 14 5 -6 9 -24 8 -42 -3 -7 -5 -13 -4 -13 1 0 11 31 39 37 34 3 -2 8 0 11 4
4 4 2 4 -5 0 -6 -3 -14 -2 -18 4 -3 5 1 10 9 10 8 0 18 5 22 12 5 7 3 8 -7 2
-9 -5 -7 2 5 21 37 58 43 65 49 58 7 -6 11 12 8 31 -1 5 5 6 14 2 9 -3 13 -2
10 4 -3 5 7 23 24 39 16 16 27 32 23 37 -4 4 -2 4 4 1 7 -4 17 0 24 8 7 8 9
15 4 15 -5 1 2 7 16 15 14 7 24 16 23 19 -7 16 -2 19 8 6 9 -12 10 -11 6 6 -4
17 -1 20 15 16 10 -2 28 4 40 14 12 11 18 13 14 6 -7 -11 -4 -11 13 0 12 7 21
16 21 21 0 4 4 6 9 2 6 -3 15 4 21 15 6 11 14 19 18 18 10 -3 52 25 52 36 0 5
11 18 23 30 33 29 68 82 60 90 -3 3 1 6 10 6 10 0 15 7 12 19 -2 13 1 18 9 15
8 -3 16 2 20 11 3 9 2 13 -4 10 -6 -3 -10 -4 -10 -1 0 3 12 13 28 21 16 10 19
14 7 11 -18 -6 -18 -4 3 13 12 11 22 24 22 30 0 6 3 10 8 9 4 -1 20 10 36 25
16 15 26 27 23 27 -3 0 18 24 46 53 29 29 55 52 59 50 4 -2 5 6 3 17 -2 11 0
18 5 15 5 -3 12 4 15 15 6 18 9 19 23 8 9 -7 13 -8 9 -2 -4 6 7 25 23 43 17
17 30 35 30 41 0 5 8 10 18 10 14 0 15 2 2 10 -13 9 -7 14 13 11 4 0 7 3 7 7
0 16 37 52 45 44 4 -4 6 0 3 8 -3 8 2 20 11 27 14 11 14 12 1 13 -13 0 -13 1
0 10 8 5 15 19 15 32 0 14 5 22 13 20 8 -1 11 2 7 8 -4 6 -1 17 5 25 7 8 9 15
4 15 -5 0 -1 5 9 11 9 5 17 19 17 30 0 13 4 18 12 13 6 -4 8 -3 5 3 -4 6 0 25
9 42 8 17 13 35 9 41 -3 5 0 7 8 4 18 -6 32 12 17 21 -7 4 -3 14 11 26 12 10
19 19 16 19 -4 0 2 9 13 20 12 12 18 24 16 29 -3 4 3 17 13 28 10 11 22 29 25
41 4 12 12 20 17 17 5 -4 9 3 9 14 0 12 9 26 19 33 10 6 17 16 15 22 -2 6 12
26 31 45 19 18 33 37 29 42 -3 5 2 9 10 9 9 0 16 7 16 16 0 8 4 12 10 9 5 -3
7 0 4 8 -3 8 2 17 11 21 9 3 13 10 10 16 -3 5 -1 10 5 10 6 0 8 5 5 10 -3 6
-1 10 4 10 6 0 11 7 11 15 0 8 5 15 11 15 5 0 8 4 5 8 -3 5 4 15 15 22 21 16
27 36 7 24 -7 -4 -6 1 3 12 9 10 19 27 22 37 4 11 12 15 19 11 7 -4 10 -4 6 1
-4 4 -1 20 8 36 8 16 15 32 16 36 2 5 15 20 30 35 15 15 28 32 28 38 0 5 5 9
12 8 7 -2 12 3 13 10 0 7 7 17 15 22 8 5 11 10 5 10 -6 0 -6 3 0 8 16 11 49
66 35 57 -7 -4 -4 4 5 18 9 15 14 30 11 36 -3 5 -2 11 3 13 6 1 12 14 15 28 6
37 18 64 30 72 7 5 7 8 -2 8 -9 0 -10 5 -3 19 6 10 7 21 4 25 -3 3 -1 6 6 6 7
0 10 4 6 9 -3 5 -1 12 5 16 5 3 10 15 10 26 0 10 5 19 11 19 5 0 7 5 4 10 -3
6 -1 10 5 10 6 0 9 4 6 9 -3 4 3 32 14 61 11 29 17 57 14 61 -3 5 0 9 6 9 6 0
10 6 9 12 -1 7 0 20 4 28 9 24 21 93 21 118 -1 12 3 22 9 22 5 0 6 11 3 25 -4
14 -2 25 3 25 5 0 8 12 8 28 -1 40 13 126 21 132 4 3 7 15 6 28 -1 12 2 22 5
22 3 0 7 12 8 28 5 86 15 128 50 222 7 18 13 40 17 60 6 37 19 70 25 66 4 -3
7 3 8 12 3 38 11 57 24 54 10 -3 10 0 -1 12 -7 9 -8 16 -3 16 11 0 11 50 0 68
-5 6 -4 12 0 12 5 0 9 9 9 20 0 11 -3 20 -7 20 -4 0 -3 15 1 34 5 22 3 39 -3
45 -6 6 -7 11 -1 11 5 0 9 16 8 35 -1 19 2 38 7 41 5 3 6 11 2 17 -9 15 -11
47 -3 47 4 0 7 7 7 15 0 8 -5 15 -10 15 -5 0 -4 7 3 15 9 11 10 18 1 28 -6 8
-8 17 -4 21 12 12 12 36 0 36 -8 0 -8 3 -2 8 15 11 17 32 3 32 -9 0 -9 3 -1
11 8 8 8 20 3 35 -6 15 -5 26 1 30 7 4 7 10 0 18 -7 9 -7 16 2 25 9 9 9 14 -3
21 -12 8 -12 10 -1 10 10 0 11 3 2 14 -9 10 -9 16 -1 21 7 4 7 11 2 18 -5 7
-8 27 -6 45 2 22 -1 30 -9 25 -7 -4 -6 1 2 10 11 14 11 17 0 17 -11 0 -11 2 1
10 11 7 11 10 2 10 -7 0 -11 4 -8 8 3 4 1 25 -4 45 -5 26 -4 37 4 37 7 0 7 3
1 8 -12 9 -15 21 -18 80 -1 26 -5 50 -10 53 -4 3 -8 24 -10 47 -1 23 -4 42 -7
42 -3 0 -7 14 -8 32 -2 17 -6 36 -11 42 -5 6 -7 19 -6 29 2 9 -1 17 -6 17 -6
0 -7 5 -4 10 4 6 2 16 -3 23 -5 7 -9 26 -8 44 0 17 -2 29 -6 26 -5 -2 -9 -1
-9 4 -1 4 -3 17 -5 28 -2 11 -4 30 -6 43 -1 12 -6 22 -11 22 -5 0 -7 7 -4 15
4 8 2 17 -4 20 -5 4 -7 10 -4 15 3 5 -4 25 -15 45 -11 20 -16 34 -11 31 9 -6
-9 54 -19 64 -4 4 -7 17 -13 55 -1 6 -5 13 -9 16 -5 3 -9 17 -10 32 -1 15 -5
27 -9 27 -4 0 -9 18 -13 40 -3 22 -12 40 -19 40 -8 0 -7 4 3 10 9 6 10 10 3
10 -6 0 -10 9 -8 20 2 11 0 18 -4 15 -8 -4 -18 20 -21 50 -1 6 -9 19 -18 29
-12 13 -13 17 -3 11 9 -5 7 3 -6 21 -11 16 -24 39 -27 52 -4 12 -12 22 -17 22
-6 0 -8 4 -4 10 6 10 -13 50 -30 62 -5 4 -6 10 -3 14 4 3 0 13 -8 22 -13 12
-13 16 -2 23 10 7 9 9 -5 9 -10 0 -15 5 -12 10 3 6 0 10 -8 10 -10 0 -13 7
-10 20 3 12 0 20 -7 20 -7 0 -10 7 -7 15 4 8 -4 22 -16 32 -12 10 -22 25 -22
33 0 8 -6 14 -14 12 -12 -3 -12 -1 0 14 9 12 9 15 2 10 -9 -5 -13 0 -13 14 0
11 -6 23 -14 26 -9 3 -12 12 -9 21 4 9 2 14 -3 10 -5 -3 -16 8 -23 24 -8 18
-17 26 -24 22 -7 -4 -5 2 3 12 9 11 10 16 3 11 -12 -6 -18 5 -14 27 0 4 -7 7
-17 7 -14 0 -15 2 -2 10 13 9 7 14 -12 11 -5 0 -8 4 -8 11 0 6 -8 20 -17 31
-10 11 -13 17 -6 14 6 -4 15 -2 19 4 4 7 3 9 -3 6 -14 -9 -37 19 -27 34 4 8 3
9 -4 5 -8 -4 -16 3 -22 18 -5 14 -14 26 -20 26 -6 0 -8 5 -5 10 3 6 1 10 -5
10 -6 0 -8 5 -5 10 3 6 1 10 -5 10 -6 0 -9 4 -6 8 3 5 -4 15 -15 22 -10 8 -19
24 -19 35 0 16 -2 17 -10 5 -8 -13 -10 -12 -11 5 -1 11 -1 23 0 27 0 4 -7 4
-16 1 -11 -4 -14 -3 -9 5 4 7 2 12 -4 12 -6 0 -8 5 -5 10 3 6 -1 10 -9 10 -9
0 -16 7 -16 17 0 9 -3 14 -6 10 -8 -8 -33 16 -27 26 2 4 -1 7 -7 7 -6 0 -8 5
-5 10 3 6 -1 10 -10 10 -9 0 -13 5 -10 10 3 6 1 10 -5 10 -7 0 -9 7 -6 16 6
15 4 15 -11 3 -9 -8 -14 -9 -10 -2 4 6 2 15 -4 18 -5 4 -8 14 -5 22 3 8 1 11
-4 8 -6 -3 -10 -1 -10 4 0 6 -3 10 -8 8 -4 -1 -8 1 -9 6 -5 15 -28 35 -35 30
-5 -2 -8 1 -8 7 0 15 -25 40 -40 40 -6 0 -9 3 -7 8 3 4 -1 13 -9 20 -8 7 -14
9 -14 5 0 -4 -8 4 -17 17 -10 14 -17 28 -15 32 1 5 -4 7 -11 5 -7 -1 -11 6 -9
17 2 11 -1 15 -8 11 -11 -7 -70 47 -70 64 0 6 -5 13 -12 17 -7 5 -8 3 -3 -6 6
-9 4 -11 -4 -6 -7 5 -10 15 -6 23 5 13 3 14 -10 3 -9 -7 -15 -9 -14 -4 3 19
-14 53 -24 47 -6 -4 -8 0 -4 10 4 11 1 17 -8 17 -8 0 -15 9 -15 19 0 11 -5 21
-10 23 -6 2 -12 13 -12 24 -2 15 -8 20 -24 18 -17 -2 -22 2 -19 17 3 14 -2 19
-18 19 -18 0 -19 2 -7 10 12 8 10 10 -9 10 -13 0 -22 3 -18 6 9 10 -17 32 -31
27 -7 -3 -12 -2 -11 3 4 21 -2 35 -11 29 -5 -3 -10 -1 -10 4 0 6 -5 11 -11 11
-5 0 -7 -6 -3 -12 5 -9 2 -9 -9 1 -19 15 -23 26 -5 15 7 -4 8 -3 4 4 -4 7 -14
12 -22 12 -8 0 -13 4 -10 9 3 5 -1 12 -10 15 -10 4 -13 2 -8 -7 4 -6 -2 -3
-13 8 -11 11 -18 24 -15 29 3 5 0 6 -7 2 -6 -4 -14 0 -17 8 -3 9 -12 16 -20
16 -8 0 -14 5 -14 11 0 5 -4 7 -10 4 -6 -4 -7 1 -3 11 5 13 3 16 -10 11 -10
-4 -17 -1 -17 6 0 7 -14 18 -30 25 -17 8 -28 17 -26 21 3 4 1 13 -5 21 -6 10
-9 11 -9 3 0 -7 -16 3 -37 22 -20 19 -41 31 -47 28 -6 -3 -8 -3 -4 2 8 9 -15
35 -31 35 -6 0 -11 5 -11 11 0 5 -4 7 -10 4 -5 -3 -10 -1 -10 5 0 6 -5 8 -12
4 -8 -5 -7 0 2 11 9 11 10 16 3 11 -8 -4 -13 -2 -13 4 0 6 -4 8 -10 5 -5 -3
-10 1 -10 10 0 9 -4 13 -10 10 -5 -3 -10 -2 -10 4 0 6 -11 13 -25 17 -14 3
-23 9 -20 14 2 4 -18 17 -45 30 -28 13 -50 27 -50 32 0 4 -9 8 -20 8 -11 0
-20 7 -20 15 0 9 -6 12 -17 8 -12 -5 -14 -3 -8 7 6 10 3 12 -13 8 -15 -4 -22
-2 -22 8 0 13 -12 18 -32 15 -5 0 -8 3 -8 9 0 5 -7 10 -16 10 -8 0 -12 5 -9
10 3 6 -3 10 -14 10 -12 0 -33 14 -48 30 -15 17 -33 28 -40 26 -8 -3 -13 2
-13 12 0 15 -2 15 -10 2 -7 -11 -10 -11 -10 -2 0 8 -5 10 -12 6 -9 -5 -9 -2 1
9 12 15 11 17 -10 18 -13 1 -27 1 -31 0 -5 0 -8 4 -8 10 0 5 -4 7 -10 4 -5 -3
-10 -2 -10 4 0 5 -9 8 -20 6 -11 -2 -20 0 -20 6 0 5 -12 9 -26 9 -17 0 -23 4
-18 12 5 8 2 9 -9 5 -9 -3 -19 -2 -22 3 -3 4 -16 7 -30 5 -14 -1 -25 2 -25 6
0 5 -6 9 -14 9 -8 0 -17 6 -19 13 -4 9 -8 9 -15 -2 -8 -11 -11 -9 -17 7 -3 12
-9 21 -13 21 -23 -4 -42 3 -40 13 2 7 -3 12 -10 13 -8 0 -19 8 -26 18 -7 9
-16 17 -20 17 -4 0 -14 7 -23 15 -8 8 -19 13 -24 10 -5 -4 -9 -2 -9 4 0 5 -11
8 -25 7 -14 -2 -22 1 -18 7 4 6 -4 8 -21 5 -14 -3 -26 -1 -26 4 0 5 -6 8 -12
5 -7 -2 -19 3 -26 12 -11 13 -12 13 -6 1 5 -10 -1 -8 -16 5 -13 11 -20 15 -17
8 4 -6 3 -14 -3 -18 -5 -3 -10 1 -10 10 0 9 -4 14 -9 10 -5 -3 -12 -1 -16 4
-4 7 -15 7 -31 1 -19 -7 -23 -7 -18 2 5 7 2 9 -8 5 -9 -3 -24 1 -35 8 -10 8
-28 15 -40 15 -13 0 -23 5 -23 11 0 6 -9 9 -20 6 -11 -3 -20 -1 -20 4 0 4 -7
6 -15 3 -8 -4 -15 -1 -15 5 0 6 -11 11 -25 11 -14 0 -25 5 -25 11 0 5 -8 9
-17 8 -34 -3 -44 1 -37 14 5 7 0 6 -11 -3 -17 -14 -18 -13 -11 5 5 15 4 17 -4
9 -12 -12 -60 -7 -60 7 0 5 -13 9 -30 9 -16 0 -30 5 -30 11 0 8 -6 7 -17 -2
-11 -10 -14 -10 -9 -1 5 8 0 12 -13 12 -12 0 -21 6 -21 13 0 8 -4 7 -10 -3 -6
-9 -10 -11 -10 -3 0 7 -7 10 -15 7 -9 -4 -15 0 -15 7 0 11 -3 11 -11 -1 -8
-11 -12 -12 -16 -2 -2 6 -9 12 -14 12 -6 0 -7 -5 -3 -11 5 -8 1 -8 -13 0 -11
6 -23 8 -26 4 -4 -3 -14 0 -24 8 -11 9 -14 10 -9 2 4 -7 2 -13 -3 -13 -6 0
-11 6 -11 13 0 8 -4 7 -10 -3 -6 -9 -10 -10 -10 -3 0 6 -8 11 -17 11 -10 -1
-31 2 -46 6 -22 5 -27 4 -21 -6 4 -7 -1 -5 -12 4 -14 13 -23 14 -38 6 -14 -8
-17 -7 -12 1 7 10 -19 16 -52 12 -8 -1 -21 4 -30 11 -13 11 -14 11 -7 -2 8
-13 7 -13 -8 -1 -14 11 -17 11 -17 0 0 -9 -3 -10 -8 -3 -8 13 -64 25 -56 13 3
-5 -5 -5 -18 0 -13 4 -39 7 -58 6 -19 -1 -39 0 -44 3 -15 8 -65 8 -59 0 2 -5
-1 -8 -6 -8 -6 0 -11 5 -11 11 0 8 -6 7 -17 -2 -13 -11 -15 -11 -9 -1 6 10 3
13 -10 11 -11 -2 -25 0 -31 4 -7 5 -13 4 -13 -1 0 -6 -14 -7 -35 -2 -21 5 -35
4 -35 -2 0 -5 -6 -6 -12 -1 -18 11 -42 10 -50 -2 -5 -6 -8 -5 -8 2 0 9 -7 10
-26 3 -17 -7 -23 -7 -19 0 4 7 -4 9 -21 6 -16 -3 -31 0 -36 7 -5 8 -10 9 -15
2 -7 -10 -24 -12 -48 -5 -22 6 -41 5 -56 -2 -9 -4 -21 -2 -27 4 -9 9 -12 9
-12 0 0 -14 -21 -12 -32 3 -5 6 -8 5 -8 -3 0 -7 -5 -10 -12 -6 -17 11 -78 12
-84 2 -4 -5 -15 -1 -27 9 -11 10 -17 12 -12 4z m2656 -608 c13 -16 12 -17 -3
-4 -10 7 -18 15 -18 17 0 8 8 3 21 -13z m284 -7962 c-9 -8 -36 -10 -30 -2 2 4
11 8 20 8 8 0 13 -3 10 -6z m-2005 -697 c0 -8 -19 -13 -24 -6 -3 5 1 9 9 9 8
0 15 -2 15 -3z m-380 -188 c0 -2 -7 -7 -16 -10 -8 -3 -12 -2 -9 4 6 10 25 14
25 6z m-383 -121 c0 -8 -4 -12 -9 -9 -5 3 -6 10 -3 15 9 13 12 11 12 -6z"/>
<path d="M1160 2271 c0 -6 4 -13 10 -16 6 -3 7 1 4 9 -7 18 -14 21 -14 7z"/>
<path d="M7510 1140 c0 -5 5 -10 11 -10 5 0 7 5 4 10 -3 6 -8 10 -11 10 -2 0
-4 -4 -4 -10z"/>
<path d="M6070 599 c0 -5 5 -7 10 -4 6 3 10 8 10 11 0 2 -4 4 -10 4 -5 0 -10
-5 -10 -11z"/>
</g>
</svg>
